<svg xmlns="http://www.w3.org/2000/svg" fill="none" viewBox="0 0 455 335"><g clip-path="url(#a)"><path fill="#FDF5E3" d="M455 0H155.163v210.085H455V0Z"/><path fill="#EFB22E" d="M417.342 19.873H185.714v53.23h231.628v-53.23Z"/><path fill="#E4A111" d="M417.343 87.299H305.081v91.557h112.262V87.299Z"/><path fill="#F9D37D" d="m436.093 209.588-98.051-162.29c-.242-.285-182.901 106.752-182.901 106.752v56.07l280.952-.532Z"/><path fill="#E4A111" d="M305.081 178.856V87.299h61.104l51.158 91.557H305.081ZM353.673 73.132l-15.794-26.147-44.621 26.147h60.415Z"/><path fill="#6C5AE0" d="m316.187 58.071 39.454 60.747a15.563 15.563 0 0 0 17.053 2.385c10.096-4.521 6.316-15.863 6.316-15.863l-37.401-62.457s-7.027-2.74-15.887 3.754c-8.86 6.495-9.535 11.434-9.535 11.434Z"/><path fill="#F9D37D" d="M379.224 105.993a7.594 7.594 0 0 0-.185-.653l-37.402-62.457s-6.487-2.52-14.864 3.037c-.36.616-.685 1.25-.973 1.903-1.655 3.853-1.719 8.957 1.513 11.632 2.651 2.194 6.452 1.988 9.891 2.13 3.439.142 7.46 1.157 8.675 4.364 1.059 2.797-.533 5.8-1.662 8.567-1.13 2.768-1.535 6.544.959 8.19 1.769 1.165 4.192.647 6.117 1.534 3.652 1.682 3.382 6.891 2.53 10.823-.853 3.932-1.102 9.149 2.565 10.81 2.671 1.213 5.684-.391 8.469-1.306a18.421 18.421 0 0 1 14.367 1.426Z"/><path fill="#261D5D" d="M376.85 107.314c-1.051-1.789-6.202-1.022-9.03.283a22.822 22.822 0 0 0-7.439 5.586c-1.713 1.924-1.158 4.805-.711 5.309 1.045 1.143 4.192.192 5.187-.099a21.935 21.935 0 0 0 7.276-3.414c2.444-1.739 5.684-6.019 4.717-7.665Z"/><path fill="#000" d="M357.858 119.919a994.939 994.939 0 0 1-32.456-47.39 980.039 980.039 0 0 1-8.576-13.592c-.668-1.086-2.387-.085-1.712 1.001a979.098 979.098 0 0 0 31.667 47.915 944.007 944.007 0 0 0 9.365 13.066c.739 1.022 2.465.029 1.712-1ZM377.014 107.456a12.325 12.325 0 0 0-1.457 2.271 22.424 22.424 0 0 1-1.663 2.243 18.314 18.314 0 0 1-4.199 3.662 15.162 15.162 0 0 1-5.158 2.037c-1.549.298-3.688.546-4.832-.781-.838-.972-2.238.44-1.421 1.42 1.308 1.518 3.446 1.703 5.322 1.504 2.21-.24 4.351-.918 6.295-1.994a19.3 19.3 0 0 0 4.974-3.989 24.349 24.349 0 0 0 1.947-2.477c.597-.859 1.478-1.959 1.655-2.995a.908.908 0 0 0-1.463-.901Z"/><path fill="#4839A3" d="M369.269 112.346c-1.421-1.313-3.502.788-2.131 2.129 1.094 1.036 3.183 2.967 1.854 4.528a14.992 14.992 0 0 1-5.265 3.549 16.94 16.94 0 0 1-6.124 1.49 6.387 6.387 0 0 1-2.942-.44 7.089 7.089 0 0 1-2.316-2.037c-3.183-3.776-6.217-7.693-9.237-11.618-3.02-3.925-5.684-7.914-8.654-11.746-1.52-1.952-3.552-3.641-6.11-3.783a5.447 5.447 0 0 0-3.311.936 32.815 32.815 0 0 1-2.793 2.059c-1.698.887-.206 3.357 1.485 2.54 1.819-.865 3.056-3.108 5.322-2.406 2.132.654 3.396 2.889 4.611 4.585a385.215 385.215 0 0 0 9.393 12.584 317.476 317.476 0 0 0 5.081 6.388c1.421 1.767 2.842 3.925 4.909 4.968 2.068 1.044 4.668 1.015 7.013.611a21.12 21.12 0 0 0 9.72-4.458 6.657 6.657 0 0 0 2.423-2.995c.902-2.683-1.102-5.16-2.928-6.884Z"/><path fill="#000" d="m297.436 112.381 19.561-15.153c.93-.71 1.939-1.476 3.119-1.54 2.06-.106 3.552 1.867 4.647 3.62.824 1.32 1.676 2.888 1.151 4.35a5.212 5.212 0 0 1-2.132 2.265 279.57 279.57 0 0 1-15.162 9.766 18.028 18.028 0 0 1-4.846 2.264 6.325 6.325 0 0 1-5.13-.71c-1.442-1.043-2.799-3.627-1.208-4.862Z"/><path fill="#6C5AE0" d="m333.65 15.145-3.984 3.98 3.984 3.98 3.984-3.98-3.984-3.98ZM45.179 176.256l-3.984 3.98 3.984 3.98 3.984-3.98-3.984-3.98ZM373.969 55.423l-3.984 3.98 3.984 3.98 3.985-3.98-3.985-3.98Z"/><path fill="#F5CE7A" d="m368.123 25.614-3.984 3.98 3.984 3.98 3.984-3.98-3.984-3.98ZM32.045 101.058l-3.984 3.98 3.984 3.98 3.984-3.98-3.984-3.98ZM24.228 219.589l-3.984 3.98 3.984 3.98 3.984-3.98-3.984-3.98Z"/><path fill="#FABE9A" d="M167.916 134.121a27.492 27.492 0 0 0 2.778-15.359c.188-.15.393-.277.611-.376a50.759 50.759 0 0 0-19.937-12.464c-3.24-1.085-6.828-1.831-10.032-.645-2.764 1.022-4.875 3.378-6.217 5.997-1.343 2.619-2.004 5.536-2.885 8.772a44.6 44.6 0 0 0 26.189 16.686c1.783.469 3.645.559 5.464.263a5.459 5.459 0 0 0 4.136-3.307c0-.036 0-.078-.107.433Z"/><path fill="#D79B78" d="M151.368 105.922c-3.24-1.085-6.828-1.831-10.032-.645-2.764 1.022-4.875 3.378-6.217 5.997-1.343 2.619-2.004 5.536-2.885 8.772a43.452 43.452 0 0 0 4.263 4.869 51.358 51.358 0 0 0 19.184-13.293 23.943 23.943 0 0 0 2.266-2.946 50.115 50.115 0 0 0-6.579-2.754Z"/><path fill="#FFD2B8" d="M142.807 101.075a5.498 5.498 0 0 0 .128 5.99 9.003 9.003 0 0 0 5.137 3.549c2.096.562 4.275.751 6.437.561.767 4.414 3.787 8.261 7.609 10.603A24.891 24.891 0 0 0 175 125.093c1.869 0 3.88-.185 5.308-1.42a9.74 9.74 0 0 0 3.026-6.316c.248-3.704.15-7.423-.291-11.108a20.153 20.153 0 0 0-3.609-10.384c-1.059-1.42-2.366-2.647-3.148-4.258-1.179-2.385-.987-5.181-1.3-7.807-.767-6.636-5.059-12.776-10.985-15.16-4.71-.497-9.073 2.526-12.32 5.969a40.99 40.99 0 0 0-10.118 18.928c-.653 2.953-.945 6.232 1.244 7.538Z"/><path fill="#FDBD9C" d="M164.015 68.66c-4.71-.496-9.073 2.528-12.32 5.97a40.989 40.989 0 0 0-10.118 18.929c-.106.454-.199.922-.277 1.42a45.735 45.735 0 0 0 8.342 8.516 14.273 14.273 0 0 0 5.236 2.903c1.954.49 4.221.156 5.628-1.278 1.52-1.547 1.712-3.946 1.52-6.11-.192-2.165-.71-4.344-.227-6.46.76-3.463 3.971-6.195 4.007-9.737 0-1.42-.519-2.839-.711-4.258-.191-1.42.072-3.102 1.258-3.932 1.037-.71 2.43-.575 3.624-.987.156-.057.305-.135.462-.206a16.881 16.881 0 0 0-6.424-4.77Z"/><path fill="#A2605F" d="M184.983 97.725c-.434-.263-.896-.468-1.322-.71-.426-.241-.874-.56-1.321-.83a32.782 32.782 0 0 1-2.636-1.782.584.584 0 0 0-.548-.092.99.99 0 0 0-.937 1.177c.038.188.129.361.262.498 1.066 1 1.983 2.47 1.464 3.982-.291.844-.831 1.497-.71 2.448a2.214 2.214 0 0 0 1.612 1.725 2.991 2.991 0 0 0 2.366-.227 5.214 5.214 0 0 0 1.066-.788c.313-.27.647-.518.945-.809a3.55 3.55 0 0 0 1.109-2.42 2.498 2.498 0 0 0-1.35-2.172ZM183.498 113.524c-.476-.823-1.741-.525-2.437-.632a7.1 7.1 0 0 1-1.947-.603 11.404 11.404 0 0 1-3.716-2.988c-.59-.71-1.755.064-1.549.83a3.482 3.482 0 0 0 .547 2.002c.354.636.81 1.209 1.35 1.696a8.634 8.634 0 0 0 3.972 1.973c.746.156 2.785.646 3.488.327.42-.192.832-1.668.292-2.605Z"/><path fill="#000" d="M173.842 85.617a.953.953 0 0 0-1.151-.653 21.021 21.021 0 0 0-4.263 1.284c-.686.281-1.353.606-1.997.973-.71.397-1.499.844-1.52 1.739a.994.994 0 0 0 .71.922c1.521.596 3.24.078 4.69-.475a7.345 7.345 0 0 0 2.131-1.072 4.05 4.05 0 0 0 1.265-1.789.938.938 0 0 0 .05-.234.951.951 0 0 0 .085-.695Z"/><path fill="#D0E7E6" d="M176.009 94.552a.584.584 0 0 0-.036-.298 2.124 2.124 0 0 0-1.087-2.129 1.72 1.72 0 0 0-1.478.305 6.194 6.194 0 0 0-1.122.845 9.715 9.715 0 0 0-1.705 2.172c-.114.184-.221.376-.327.56a1.368 1.368 0 0 0-.277.802c.071.554.774.71 1.236.788a6.002 6.002 0 0 0 1.712 0c.616.038 1.229-.1 1.769-.397a2.59 2.59 0 0 0 1.016-1.42 2.48 2.48 0 0 0 .27-1.107.658.658 0 0 0 .029-.12Z"/><path fill="#261D5D" d="M174.979 91.614a.458.458 0 0 0-.448-.107.873.873 0 0 0-1.08.306 4.661 4.661 0 0 0-.632 3.165c.121.901.618 2.342 1.776 2.229a1.763 1.763 0 0 0 1.279-1.164 3.908 3.908 0 0 0 .024-3.137 3.837 3.837 0 0 0-.919-1.292Z"/><path fill="#000" d="M175.426 90.542a1.03 1.03 0 0 0-1.357-.355 10.952 10.952 0 0 0-5.613 6.133 1.002 1.002 0 0 0 .101.758 1.002 1.002 0 0 0 .61.462 1.01 1.01 0 0 0 1.215-.71c.035-.077.064-.156.092-.234v-.042c.064-.128.121-.256.185-.376.135-.28.284-.552.447-.816.157-.249.327-.497.505-.71a.338.338 0 0 0 .071-.093l.163-.191a9.387 9.387 0 0 1 .981-.994l.355-.298.171-.128a9.958 9.958 0 0 1 1.641-.944 1.002 1.002 0 0 0 .433-1.462ZM39.98 52.904h23.043l50.745 97.889-13.735 17.204L39.98 52.904Z"/><path fill="#000" d="M74.426 115.781h-49.11v2.129h49.11v-2.129ZM82.114 122.992H20.662v2.129h61.452v-2.129ZM94.214 152.517H24.62v2.13h69.595v-2.13ZM93.284 158.799h-72.16v2.129h72.16v-2.129ZM25.33 199.965l-.02 2.129 25.834.235.02-2.129-25.834-.235ZM21.142 207.846l-.05 2.129 30.026.696.05-2.128-30.026-.697Z"/><path fill="#1D1B17" d="M117.47 79.3a27.752 27.752 0 0 0 5.115 25.061c1.841 2.229 4.022 4.152 5.976 6.274a20.221 20.221 0 0 1 4.689 7.587c4.171 0 8.008-2.562 10.544-5.869 2.537-3.308 3.986-7.289 5.059-10.987l7.176-.603a3.17 3.17 0 0 0 1.336-.32c1.158-.674.966-2.363.81-3.697a14.274 14.274 0 0 1 3.553-11.094 3.638 3.638 0 0 0 1.08-1.654c.213-1.213-.931-2.171-1.791-3.052a8.802 8.802 0 0 1-2.465-6.388 8.308 8.308 0 0 1 3.296-6.273 14.592 14.592 0 0 0-7.275-4.678 25.29 25.29 0 0 0-8.697-.844 41.14 41.14 0 0 0-23.411 8.964c-2.43 1.959-4.69 4.258-5.734 7.218.214.175.468.297.739.355Z"/><path fill="#000" d="M168.335 56.971a9.293 9.293 0 0 0-4.746-4.634 7.317 7.317 0 0 0-6.139.29 7.931 7.931 0 0 0-2.884 2.52 15.119 15.119 0 0 1-4.036.114c-1.229-.22-2.444-.845-3.666-.596-1.706.347-2.842 2.278-4.548 2.434-1.563.135-3.048-1.256-4.554-.837-1.506.418-2.132 2.292-3.624 2.562-1.087.199-2.131-.582-3.261-.447-.973.12-1.698.915-2.451 1.554-1.769 1.519-4.036 2.328-5.933 3.676-4.341 3.074-6.331 8.787-5.755 14.068.22 2.044.838 4.152 2.33 5.578a7.736 7.736 0 0 0 4.675 1.91c4.008.34 7.909-1.477 11.212-3.77 3.304-2.292 6.267-5.081 9.749-7.097a26.46 26.46 0 0 1 15.631-3.456c1.218.181 2.45.25 3.68.206.218-.022.434-.058.647-.107l-.043.092c1.663.341 3.347-1.064 3.695-2.683 0-.085 0-.177.036-.262a9.781 9.781 0 0 0 1.058-3.549 13.888 13.888 0 0 0-1.073-7.566Zm.164 6.388c-.03.818-.14 1.63-.327 2.427a11.55 11.55 0 0 0-.895-2.228 18 18 0 0 0-4.569-5.891 11.183 11.183 0 0 0-6.856-2.612 6.679 6.679 0 0 1 6.735-2.051 8.04 8.04 0 0 1 4.505 3.705 12.003 12.003 0 0 1 1.407 6.671v-.021Z"/><path fill="#FFD2B8" d="M258.216 148.465c9.364-17.347 38.581-43.444 42.929-41.57 1.677.71-1.911 4.805-.831 6.387 1.577 2.293 5.485-.936 8.256-1.22a3.744 3.744 0 0 1 2.437.305c1.03.66 1.165 2.2.625 3.3-.54 1.1-1.577 1.867-3.026 3.002 1.548-.198 2.735 1.633 2.501 3.173-.235 1.54-1.372 2.775-2.693 4.386.76.341 1.861.298 2.28 1.015 1.578 2.697-1.705 6.097-4.334 8.723.768 4.159-2.899 7.892-6.771 9.61-3.872 1.717-8.242 2.307-11.802 4.599-4.391 2.839-6.849 7.807-8.689 12.733-1.84 4.926-3.34 10.05-6.345 14.195-9.457-6.466-15.12-18.099-14.011-29.497 0 .085 0 .163-.526.859Z"/><path fill="#FFBA95" d="M263.274 140.629a21.748 21.748 0 0 0 14.736-7.097c4.193-4.564 6.544-10.547 7.546-16.687-7.517 6.573-16.15 15.523-22.282 23.784ZM309.181 111.998c-.206 0-.412 0-.611.05-2.771.283-6.679 3.548-8.256 1.22-.988-1.419 1.954-5.01 1.129-6.132a22.89 22.89 0 0 0-6.394 6.388 5.917 5.917 0 0 0-1.016 2.314 2.364 2.364 0 0 0 .852 2.264c.803.553 1.897.355 2.842.092a29.657 29.657 0 0 0 11.021-5.827l.433-.369ZM311.632 115.653a3.16 3.16 0 0 0 .277-1.824 12.891 12.891 0 0 1-3.162 3.201c-2.01 1.469-4.263 2.605-6.103 4.294-.504.461-1.009 1.128-.767 1.767.298.816 1.421.809 2.281.589a15.724 15.724 0 0 0 6.607-3.669 2.203 2.203 0 0 0-2.167-1.334c1.457-1.157 2.494-1.917 3.034-3.024ZM305.678 128.287c-.507.29-.957.67-1.329 1.121a1.423 1.423 0 0 0-.099 1.625c.604.809 1.883.355 2.707-.227a18.655 18.655 0 0 0 3.752-3.549c-.42-.709-1.521-.709-2.281-1.014l.518-.632a21.575 21.575 0 0 1-3.268 2.676ZM304.328 135.64a4.029 4.029 0 0 0-1.563 1.199 1.293 1.293 0 0 0 .22 1.767 1.774 1.774 0 0 0 1.421 0c.683-.225 1.348-.5 1.99-.823a6.018 6.018 0 0 0-.05-1.817c1.641-1.639 3.553-3.549 4.348-5.472a24.453 24.453 0 0 1-6.366 5.146ZM280.696 152.553c-3.794 2.484-8.966 1.895-12.938-.284a30.631 30.631 0 0 1-7.816-6.7 50.453 50.453 0 0 0-1.698 2.896c.448-.589.512-.71.526-.817-1.094 11.356 4.561 22.996 14.011 29.455 3.006-4.159 4.505-9.319 6.345-14.195 1.84-4.876 4.299-9.894 8.69-12.733.241-.156.497-.284.746-.426a3.437 3.437 0 0 0-1.421-.518c-2.501-.305-4.377 1.973-6.445 3.322Z"/><path fill="#FFD3B5" d="M67.421 189.53c-1.371-2.739-5.158-3.506-8.05-2.469-2.892 1.036-5.087 3.364-7.17 5.621-1.932 2.129-3.914 4.258-4.873 6.969-.96 2.712-.64 6.047 1.286 7.957A106.682 106.682 0 0 0 67.42 189.53Z"/><path fill="#FFBA95" d="m48.514 207.494.1.114A106.683 106.683 0 0 0 67.42 189.53a4.536 4.536 0 0 0-.327-.539 31.274 31.274 0 0 0-11.327 7.21 31.225 31.225 0 0 0-7.253 11.293Z"/><path fill="#D8D9FD" d="M281.094 176.649a7.926 7.926 0 0 0-3.304-6.04c-6.103-1.044-10.657-5.593-13.286-10.788-2.629-5.196-3.588-11.044-4.533-16.786a2.418 2.418 0 0 0-2.594-1.703 6.122 6.122 0 0 0-2.678 1.32c-2.281 1.639-4.605 3.307-6.36 5.507-1.755 2.201-2.92 5.018-2.522 7.808-.355-1.292-1.165-1.647-1.776-1.469-.593.247-1.1.664-1.457 1.199a7440.06 7440.06 0 0 1-5.25 6.459c-2.033 2.044-2.565 4.968-1.365 7.097a37.67 37.67 0 0 0-17.528 10.689 165.866 165.866 0 0 0-34.815-39.788 21.307 21.307 0 0 0-5.649-3.748c-2.132-.837-4.604-.994-6.594.107.782-3.798-1.783-6.147-4.462-6.743-2.678-.596-5.442 0-8.171.234a28.742 28.742 0 0 1-25.891-12.775c-4.583 3.506-8.732 7.097-12.881 10.646l1.286 1.774c-8.541 2.357-15.724 8.255-21.408 15.061-5.77 6.956-10.16 14.905-15.07 22.506a189.415 189.415 0 0 1-37.117 42.081 46.22 46.22 0 0 0 14.444 26.36c3.283 2.967 7.283 5.557 11.702 5.607 6.658.085 11.902-5.38 16.229-10.426a42.552 42.552 0 0 0 5.925 21.349c32.059 1.781 64.195 2.172 96.588.774.303-7.973.611-15.944.923-23.912 3.674 4.841 7.262 9.518 11.973 12.875 4.71 3.357 10.714 5.252 16.342 4.017 5.797-1.277 10.394-5.564 14.672-9.674 6.394-6.146 12.789-12.314 18.281-19.298 5.493-6.984 9.983-14.855 12.079-23.464a8.986 8.986 0 0 0 8.796-1.867c2.267-2.051 3.482-5.003 4.384-7.927a18.303 18.303 0 0 0 1.087-7.062Z"/><path fill="#4839A3" d="M132.859 117.293c-4.583 3.506-8.732 7.097-12.881 10.646l1.286 1.774-.37.1a42.212 42.212 0 0 0 8.164 7.09 41.741 41.741 0 0 1 9.585-13.208 27.314 27.314 0 0 1-5.784-6.402Z"/><path fill="#4839A3" d="M132.859 117.293c-4.583 3.506-8.732 7.097-12.881 10.646l1.286 1.774-.37.1a42.212 42.212 0 0 0 8.164 7.09 41.741 41.741 0 0 1 9.585-13.208 27.314 27.314 0 0 1-5.784-6.402ZM205.723 204.662a122.396 122.396 0 0 1 12.725-24.699 165.844 165.844 0 0 0-34.815-39.788 21.331 21.331 0 0 0-5.649-3.748 8.198 8.198 0 0 0-5.748-.269 22.597 22.597 0 0 1-7.389 5.954c18.352 2.399 42.872 30.228 42.24 34.977-.654 4.932-5.77 15.046-7.489 19.716-1.719 4.67-2.252 10.299.711 14.295a12.897 12.897 0 0 0 5.414-6.438Z"/><path fill="#F9D37D" d="M245.732 159.175c2.586 5.798 7.73 10.057 13.13 13.407 5.4 3.35 11.233 6.026 16.306 9.844.428.268.776.646 1.009 1.093a1.023 1.023 0 0 1-.391 1.299c-.28.085-.579.085-.859 0a47.305 47.305 0 0 1-18.58-7.154 32.974 32.974 0 0 1-12.47-15.281 4.931 4.931 0 0 1-.426-2.051 1.915 1.915 0 0 1 1.066-1.69 1.16 1.16 0 0 1 1 .03 1.159 1.159 0 0 1 .598.801c0 .085 0 .177-.383-.298Z"/><path fill="#4839A3" d="M257.526 170.907a3.689 3.689 0 0 0-.461-3.237 14.818 14.818 0 0 0-2.246-2.526 28.825 28.825 0 0 1-7.815-14.983 9.489 9.489 0 0 0-1.215 5.82c-.356-1.292-1.166-1.647-1.777-1.469-.085.032-.168.07-.248.113a26.426 26.426 0 0 0 5.168 9.586 26.49 26.49 0 0 0 8.594 6.696ZM277.79 170.63a15.03 15.03 0 0 1-2.778-.759 17.458 17.458 0 0 1-2.074 4.918c2.046.241 3.701 2.612 5.684 2.037a3.23 3.23 0 0 0 1.309-.987c.343-.437.568-.955.652-1.504a7.228 7.228 0 0 0-2.793-3.705ZM254.748 216.934c5.365-6.842 9.806-14.55 11.966-22.968a119.582 119.582 0 0 1-20.939-15.451c3.041 17.992-.761 36.233-5.457 53.998a155.903 155.903 0 0 0 14.43-15.579ZM192.557 252.925l.874-22.605a297.658 297.658 0 0 0-36.336-42.315c-1.421-1.384-3.226-2.839-5.173-2.456-1.691.348-2.764 1.973-3.616 3.471a126.855 126.855 0 0 0-16.264 55.118c-.185 3.137-.163 6.495.817 9.412a952.57 952.57 0 0 0 59.698-.625ZM86.115 209.247c-4.391 4.912-9.237 10.093-15.632 11.527-5.62 1.249-11.61-.71-16.263-4.089a34.688 34.688 0 0 1-6.26-6.025 46.259 46.259 0 0 0 14.21 24.961c3.283 2.967 7.283 5.558 11.703 5.607 3.552.043 6.657-1.476 9.463-3.662a63.142 63.142 0 0 0 2.843-7.445l10.963-33.145a2350.5 2350.5 0 0 0-11.027 12.271Z"/><path fill="#F9D37D" d="M238.406 233.428a63.514 63.514 0 0 1-47.86-8.311c-.398.291-.511.909.618 1.469l2.238 3.641.05-1.185c3.673 4.841 7.262 9.518 11.972 12.875 4.711 3.357 10.715 5.252 16.342 4.017 5.798-1.278 10.395-5.564 14.672-9.674l3.027-2.91a2.562 2.562 0 0 0-1.059.078ZM171.433 136.236c.583-3.606-1.911-5.856-4.512-6.431a7.881 7.881 0 0 0-1.002-.17c-.102.442-.181.89-.234 1.341-.445 3.313-.891 6.603-1.336 9.873a9.395 9.395 0 0 0 7.084-4.613ZM144.746 144.838a3.612 3.612 0 0 0 2.473 0 6.03 6.03 0 0 0 .561-.327 2.28 2.28 0 0 0 .285-.17 3.186 3.186 0 0 0-2.217-.823 36.685 36.685 0 0 1-14.614-5.023 36.629 36.629 0 0 1-11.242-10.592l1.286 1.775c-8.555 2.328-15.738 8.226-21.422 15.032-5.77 6.956-10.16 14.905-15.07 22.506a189.04 189.04 0 0 1-23.696 29.589 12.56 12.56 0 0 0 7.447-1.121c3.637-1.668 6.586-4.535 9.186-7.58 9.728-11.356 15.717-26.034 27.384-35.431a44.462 44.462 0 0 1 39.448-7.864.428.428 0 0 1 .191.029Z"/><path fill="#000" d="M280.341 260.477h-61.815v63.167h61.815v-63.167Z"/><path fill="#6C5AE0" d="M248.368 251.25H1.108V335h247.26v-83.75Z"/><path fill="#F2BF4E" d="M1.108 335v-83.75H168.79l25.579 41.875L168.79 335H1.108Z"/><path fill="#000" d="M281.407 324.709H217.46v-65.297h63.947v65.297Zm-61.815-2.13h59.683v-61.038h-59.683v61.038Z"/><path fill="#6C5AE0" d="m4.968 141.477-3.984 3.979 3.984 3.98 3.985-3.98-3.985-3.979Z"/><path fill="#4839A3" d="M145.194 101.813a.213.213 0 1 0 .15.363.211.211 0 0 0 0-.301.212.212 0 0 0-.15-.062Z"/><path fill="#000" d="M25.408 290.563a.711.711 0 0 1 0-1.42h.363a.711.711 0 0 1 0 1.42h-.363Zm6.04-.043a.712.712 0 0 1-.71-.709.708.708 0 0 1 .71-.71h.355a.711.711 0 0 1 .502 1.211.711.711 0 0 1-.502.208h-.363.008Zm6.039-.042a.712.712 0 0 1-.502-1.212.712.712 0 0 1 .502-.208h.355a.711.711 0 0 1 .503 1.212.711.711 0 0 1-.503.208h-.362.007Zm6.04-.043a.712.712 0 0 1-.503-1.212.71.71 0 0 1 .502-.207h.363a.71.71 0 0 1 .502 1.211.712.712 0 0 1-.502.208h-.363Zm6.039-.035a.711.711 0 0 1-.503-1.212.711.711 0 0 1 .503-.208h.362a.712.712 0 0 1 .503 1.212.712.712 0 0 1-.503.208h-.362Zm6.04-.043a.711.711 0 0 1-.503-1.212.71.71 0 0 1 .502-.207h.363a.71.71 0 0 1 .502 1.211.712.712 0 0 1-.502.208h-.363Zm6.039-.043a.71.71 0 1 1 0-1.419h.362a.711.711 0 0 1 .502 1.212.71.71 0 0 1-.502.207h-.362Zm6.039-.042a.712.712 0 0 1-.502-1.212.712.712 0 0 1 .502-.208h.362a.711.711 0 0 1 .503 1.212.711.711 0 0 1-.503.208h-.362Zm6.04-.043a.707.707 0 0 1-.711-.709.708.708 0 0 1 .71-.71h.363a.711.711 0 0 1 .71.71.708.708 0 0 1-.71.709h-.363Zm6.039 0a.707.707 0 0 1-.71-.709.708.708 0 0 1 .71-.71h.355a.712.712 0 0 1 .71.71.708.708 0 0 1-.71.709h-.362.007Zm6.04-.042a.711.711 0 0 1-.503-1.212.711.711 0 0 1 .502-.208h.355a.712.712 0 0 1 .503 1.212.712.712 0 0 1-.503.208h-.362.007Zm6.038-.043a.711.711 0 0 1-.502-1.211.707.707 0 0 1 .502-.208h.363a.707.707 0 0 1 .71.709.708.708 0 0 1-.71.71h-.362Zm6.04-.042a.712.712 0 0 1-.503-1.212.712.712 0 0 1 .503-.208h.362a.711.711 0 0 1 0 1.42h-.362Zm6.039-.043a.71.71 0 0 1 0-1.42h.363a.71.71 0 0 1 0 1.42h-.363Zm6.04-.043a.707.707 0 0 1-.711-.709.71.71 0 0 1 .711-.71h.362a.71.71 0 0 1 .502 1.211.707.707 0 0 1-.502.208h-.362Zm6.039-.035a.71.71 0 0 1 0-1.42h.362a.711.711 0 0 1 .503 1.212.711.711 0 0 1-.503.208h-.362Zm6.039-.043a.707.707 0 0 1-.71-.709.71.71 0 0 1 .71-.71h.363a.71.71 0 0 1 .502 1.211.707.707 0 0 1-.502.208h-.363Zm6.04-.042a.713.713 0 0 1-.711-.71.71.71 0 0 1 .711-.71h.362a.713.713 0 0 1 .711.71.71.71 0 0 1-.711.71h-.362Zm6.039-.043a.71.71 0 0 1-.502-1.211.707.707 0 0 1 .502-.208h.363a.707.707 0 0 1 .71.709.71.71 0 0 1-.71.71h-.363Zm6.04-.042a.711.711 0 0 1-.503-1.212.711.711 0 0 1 .503-.208h.362a.71.71 0 0 1 0 1.42h-.362Zm6.039-.036a.71.71 0 1 1 0-1.419h.362a.712.712 0 0 1 .711.709.71.71 0 0 1-.711.71h-.362Zm6.039-.043a.71.71 0 1 1 0-1.419h.356a.71.71 0 0 1 .502 1.212.71.71 0 0 1-.502.207h-.356Zm6.04-.042a.713.713 0 0 1-.711-.71.71.71 0 0 1 .711-.71h.362a.71.71 0 1 1 0 1.42h-.362ZM25.408 303.338a.711.711 0 0 1-.502-1.211.711.711 0 0 1 .502-.208h.363a.711.711 0 0 1 .502 1.211.711.711 0 0 1-.502.208h-.363Zm6.04-.042a.712.712 0 0 1-.503-1.212.712.712 0 0 1 .503-.208h.355a.711.711 0 0 1 0 1.42h-.363.008Zm6.039-.043a.712.712 0 0 1-.502-1.212.71.71 0 0 1 .502-.207h.355a.71.71 0 1 1 0 1.419h-.362.007Zm6.04-.042a.712.712 0 0 1-.503-1.212.712.712 0 0 1 .502-.208h.363a.712.712 0 0 1 .502 1.212.712.712 0 0 1-.502.208h-.363Zm6.039-.036a.711.711 0 0 1-.503-1.212.71.71 0 0 1 .503-.207h.362a.71.71 0 0 1 .503 1.211.712.712 0 0 1-.503.208h-.362Zm6.04-.043a.71.71 0 1 1 0-1.419h.361a.712.712 0 0 1 .503 1.212.71.71 0 0 1-.502.207h-.363Zm6.039-.042a.711.711 0 0 1 0-1.42h.362a.711.711 0 0 1 0 1.42h-.362Zm6.039-.043a.712.712 0 0 1-.71-.709.708.708 0 0 1 .71-.71h.362a.711.711 0 0 1 .71.71.707.707 0 0 1-.71.709h-.362Zm6.04-.042a.712.712 0 0 1-.503-1.212.712.712 0 0 1 .502-.208h.363a.711.711 0 0 1 .502 1.212.711.711 0 0 1-.502.208h-.363Zm6.039 0a.712.712 0 0 1-.503-1.212.712.712 0 0 1 .503-.208h.362a.712.712 0 0 1 .502 1.212.712.712 0 0 1-.502.208h-.362Zm6.04-.043a.711.711 0 0 1-.503-1.212.71.71 0 0 1 .502-.207h.362a.71.71 0 0 1 .503 1.211.712.712 0 0 1-.502.208h-.363Zm6.038-.042a.711.711 0 0 1 0-1.42h.363a.712.712 0 0 1 .502 1.212.712.712 0 0 1-.502.208h-.362Zm6.04-.043a.712.712 0 0 1-.503-1.212.712.712 0 0 1 .503-.208h.355a.711.711 0 0 1 0 1.42h-.362.007Zm6.039-.043a.707.707 0 0 1-.71-.709.71.71 0 0 1 .71-.71h.363a.71.71 0 0 1 .502 1.211.707.707 0 0 1-.502.208h-.363Zm6.04-.042a.711.711 0 0 1-.503-1.212.711.711 0 0 1 .503-.208h.362a.71.71 0 0 1 0 1.42h-.362Zm6.039-.036a.71.71 0 0 1-.502-1.211.71.71 0 0 1 .502-.208h.362a.711.711 0 0 1 .711.71.709.709 0 0 1-.711.709h-.362Zm6.039-.042a.71.71 0 0 1 0-1.42h.363a.71.71 0 0 1 0 1.42h-.363Zm6.04-.043a.713.713 0 0 1-.711-.71.713.713 0 0 1 .711-.709h.362a.712.712 0 0 1 .711.709.71.71 0 0 1-.711.71h-.362Zm6.039-.042a.71.71 0 0 1 0-1.42h.363a.71.71 0 0 1 0 1.42h-.363Zm6.04-.043a.711.711 0 0 1-.503-1.212.711.711 0 0 1 .503-.208h.362a.71.71 0 0 1 0 1.42h-.362Zm6.039-.036a.708.708 0 0 1-.502-1.211.71.71 0 0 1 .502-.208h.355a.713.713 0 0 1 .711.71.713.713 0 0 1-.711.709h-.355Zm6.039-.042a.71.71 0 0 1 0-1.42h.356a.71.71 0 0 1 0 1.42h-.356Zm6.04-.043a.713.713 0 0 1-.711-.709.71.71 0 0 1 .711-.71h.362a.71.71 0 1 1 0 1.419h-.362ZM25.408 314.694a.711.711 0 0 1-.502-1.211.711.711 0 0 1 .502-.208h.355a.711.711 0 0 1 .503 1.211.711.711 0 0 1-.502.208H25.4h.007Zm6.04-.042a.712.712 0 0 1-.503-1.212.712.712 0 0 1 .503-.208h.355a.711.711 0 0 1 0 1.42h-.363.008Zm6.039-.043a.712.712 0 0 1-.502-1.212.71.71 0 0 1 .502-.207h.362a.71.71 0 1 1 0 1.419h-.362Zm6.04-.043a.71.71 0 0 1-.503-1.211.712.712 0 0 1 .502-.208h.363a.712.712 0 0 1 .502 1.212.71.71 0 0 1-.502.207h-.363Zm6.039-.035a.711.711 0 0 1-.503-1.212.711.711 0 0 1 .503-.208h.362a.712.712 0 0 1 .503 1.212.712.712 0 0 1-.503.208h-.362Zm6.04-.043a.71.71 0 1 1 0-1.419h.361a.712.712 0 0 1 .503 1.212.71.71 0 0 1-.502.207h-.363Zm6.039-.042a.711.711 0 0 1 0-1.42h.362a.711.711 0 0 1 0 1.42h-.362Zm6.039-.043a.712.712 0 0 1-.71-.71.708.708 0 0 1 .71-.709h.362a.711.711 0 0 1 .71.709.708.708 0 0 1-.71.71h-.362Zm6.04-.042a.712.712 0 0 1-.503-1.212.712.712 0 0 1 .502-.208h.363a.711.711 0 0 1 .502 1.212.711.711 0 0 1-.502.208h-.363Zm6.039 0a.712.712 0 0 1-.503-1.212.712.712 0 0 1 .503-.208h.362a.712.712 0 0 1 .502 1.212.712.712 0 0 1-.502.208h-.362Zm6.04-.043a.711.711 0 0 1-.503-1.212.71.71 0 0 1 .502-.207h.362a.71.71 0 0 1 .503 1.211.712.712 0 0 1-.502.208h-.363Zm6.038-.043a.71.71 0 1 1 0-1.419h.363a.712.712 0 0 1 .502 1.212.71.71 0 0 1-.502.207h-.362Zm6.04-.042a.712.712 0 0 1-.503-1.212.712.712 0 0 1 .503-.208h.362a.711.711 0 0 1 0 1.42h-.362Zm6.039-.043a.707.707 0 0 1-.71-.709.71.71 0 0 1 .71-.71h.363a.71.71 0 0 1 .502 1.211.707.707 0 0 1-.502.208h-.363Zm6.04-.042a.711.711 0 0 1-.503-1.212.711.711 0 0 1 .503-.208h.362a.71.71 0 0 1 0 1.42h-.362Zm6.039-.036a.71.71 0 0 1-.502-1.211.71.71 0 0 1 .502-.208h.355a.713.713 0 0 1 .711.709.71.71 0 0 1-.711.71h-.362.007Zm6.039-.042a.71.71 0 0 1 0-1.42h.363a.71.71 0 0 1 0 1.42h-.363Zm6.04-.043a.713.713 0 0 1-.711-.71.713.713 0 0 1 .711-.709h.362a.712.712 0 0 1 .711.709.71.71 0 0 1-.711.71h-.362Zm6.039-.043a.71.71 0 1 1 0-1.419h.363a.71.71 0 0 1 .502 1.212.71.71 0 0 1-.502.207h-.363Zm6.04-.042a.711.711 0 0 1-.503-1.212.711.711 0 0 1 .503-.208h.355a.71.71 0 0 1 0 1.42h-.363.008Zm6.039-.036a.708.708 0 0 1-.502-1.211.71.71 0 0 1 .502-.208h.355a.713.713 0 0 1 .711.71.713.713 0 0 1-.711.709h-.355Zm6.039-.042a.71.71 0 0 1 0-1.42h.363a.71.71 0 0 1 0 1.42h-.363Zm6.04-.043a.713.713 0 0 1-.711-.71.709.709 0 0 1 .711-.709h.362a.71.71 0 1 1 0 1.419h-.362Z"/><path fill="#4839A3" d="M151.176 93.906a10.183 10.183 0 0 0-3.425-2.668c.634-5.293.831-10.63.59-15.955a95.316 95.316 0 0 0-.86-9.078 56.537 56.537 0 0 0-1.74-8.836 14.562 14.562 0 0 0-1.713-3.876c-.81-1.192-1.961-1.1-3.261-.922-1.38.18-2.73.543-4.014 1.079-1.087.447-2.594 1-3.233 2.058-.64 1.057-.213 2.654 0 3.86.249 1.491.554 2.975.888 4.451.647 2.839 1.421 5.678 2.174 8.517 1.606 5.997 3.176 12.066 3.482 18.269a16.815 16.815 0 0 0-5.35 8.226 12.166 12.166 0 0 0 1.712 10.192c2.131 2.839 5.897 4.535 9.379 3.768 3.666-.794 6.43-4.066 7.481-7.658a12.58 12.58 0 0 0-2.11-11.427Zm-9.137-3.484c-.568-10.192-4.398-19.824-6.324-29.81a61.147 61.147 0 0 1-.348-1.916c-.078-.476-.405-1.42-.199-1.888.206-.468.945-.71 1.336-.901a13.67 13.67 0 0 1 2.061-.845c.497-.156.994-.291 1.506-.397a5.921 5.921 0 0 1 1.89-.256c.391.071.355.078.582.44.164.263.311.536.441.816.314.666.58 1.354.796 2.059a51.771 51.771 0 0 1 1.641 7.977 96.02 96.02 0 0 1 .881 8.517 96.032 96.032 0 0 1-.455 16.324 8.738 8.738 0 0 0-3.808-.12Z"/><path fill="#6C5AE0" d="M147.752 91.238c.633-5.293.83-10.63.589-15.955a95.64 95.64 0 0 0-.859-9.078 56.658 56.658 0 0 0-1.741-8.836 14.591 14.591 0 0 0-1.712-3.876 2.142 2.142 0 0 0-1.471-.979 8.901 8.901 0 0 1-.178 2.13l.164.248c.163.262.31.535.44.816.314.666.58 1.354.796 2.058a51.653 51.653 0 0 1 1.641 7.978c.427 2.839.711 5.678.881 8.517a96.136 96.136 0 0 1-.454 16.324 9.447 9.447 0 0 0-1.421-.234c-.064.454-.121.901-.185 1.348a9.63 9.63 0 0 1 5.849 4.937 9.602 9.602 0 0 1 .392 7.639 9.614 9.614 0 0 1-5.313 5.509 9.648 9.648 0 0 1-7.657-.107 3.574 3.574 0 0 0-.916-.27 9.472 9.472 0 0 0 9.236 3.549c3.667-.795 6.431-4.067 7.482-7.658a12.584 12.584 0 0 0-2.131-11.406 10.2 10.2 0 0 0-3.432-2.654Z"/><path fill="#000" d="M25.962 277.766a.711.711 0 0 1-.502-1.212.71.71 0 0 1 .502-.207h.356a.71.71 0 1 1 0 1.419h-.356Zm6.04-.042a.712.712 0 0 1-.503-1.212.712.712 0 0 1 .503-.208h.355a.711.711 0 0 1 0 1.42h-.355Zm6.04-.043a.712.712 0 0 1-.503-1.212.712.712 0 0 1 .502-.208h.363a.711.711 0 0 1 .502 1.212.711.711 0 0 1-.502.208h-.363Zm6.039-.036a.71.71 0 0 1-.503-1.211.712.712 0 0 1 .503-.208h.355a.712.712 0 0 1 .502 1.212.71.71 0 0 1-.502.207h-.355Zm6.032-.042a.711.711 0 0 1-.502-1.212.711.711 0 0 1 .502-.208h.355a.712.712 0 0 1 .503 1.212.712.712 0 0 1-.503.208h-.355Zm6.04-.043a.707.707 0 0 1-.711-.709.708.708 0 0 1 .71-.71h.355a.712.712 0 0 1 .711.71.708.708 0 0 1-.71.709h-.363.007Zm6.039-.042a.711.711 0 0 1 0-1.42h.355a.711.711 0 0 1 0 1.42h-.355Zm6.039-.043a.712.712 0 0 1-.71-.71.708.708 0 0 1 .71-.709h.355a.707.707 0 0 1 .71.709.708.708 0 0 1-.71.71h-.362.007Zm6.047-.042a.712.712 0 0 1-.503-1.212.712.712 0 0 1 .502-.208h.356a.711.711 0 0 1 .502 1.212.711.711 0 0 1-.502.208h-.355Zm6.039-.043a.712.712 0 0 1-.502-1.212.712.712 0 0 1 .502-.208h.355a.712.712 0 0 1 .503 1.212.712.712 0 0 1-.503.208h-.362.007Zm6.04-.043a.707.707 0 0 1-.711-.709.708.708 0 0 1 .71-.71h.356a.712.712 0 0 1 .71.71.708.708 0 0 1-.71.709h-.356Zm6.039-.042a.711.711 0 0 1 0-1.42h.355a.712.712 0 0 1 .502 1.212.712.712 0 0 1-.502.208h-.362.007Zm6.04-.043a.711.711 0 0 1-.503-1.211.707.707 0 0 1 .502-.208h.355a.707.707 0 0 1 .71.709.708.708 0 0 1-.71.71h-.355Zm6.038-.042a.71.71 0 0 1 0-1.42h.356a.71.71 0 0 1 0 1.42h-.363.007Zm6.04 0a.713.713 0 0 1-.711-.71.71.71 0 0 1 .711-.71h.355a.713.713 0 0 1 .711.71.71.71 0 0 1-.711.71h-.355Zm6.039-.043a.71.71 0 0 1-.502-1.212.71.71 0 0 1 .502-.207h.355a.71.71 0 1 1 0 1.419h-.362.007Zm6.04-.043a.71.71 0 1 1 0-1.419h.355a.71.71 0 0 1 .502 1.212.71.71 0 0 1-.502.207h-.355Zm6.039-.042a.71.71 0 0 1 0-1.42h.355a.713.713 0 0 1 .711.71.71.71 0 0 1-.711.71h-.362.007Zm6.039-.043a.707.707 0 0 1-.71-.709.71.71 0 0 1 .71-.71h.356a.71.71 0 0 1 .502 1.211.707.707 0 0 1-.502.208h-.356Zm6.04-.035a.713.713 0 0 1-.711-.71.71.71 0 0 1 .711-.71h.355a.71.71 0 0 1 0 1.42h-.362.007Zm6.039-.043a.71.71 0 0 1-.502-1.211.707.707 0 0 1 .502-.208h.355a.707.707 0 0 1 .711.709.71.71 0 0 1-.711.71h-.355Zm6.04-.042a.711.711 0 0 1-.503-1.212.711.711 0 0 1 .503-.208h.355a.71.71 0 0 1 0 1.42h-.363.008Zm6.039-.043a.71.71 0 1 1 0-1.419h.355a.712.712 0 0 1 .711.709.71.71 0 0 1-.711.71h-.355Z"/><path fill="#E4A111" d="m342.738 52.102-.568-1.128-1.116-2.214a1 1 0 0 0-1.357-.355 1.015 1.015 0 0 0-.355 1.355l1.116 2.215c.184.362.362.71.547 1.093l.277.54c.042.091.085.184.135.269.113.19.269.353.455.475a.927.927 0 0 0 .959 0 .939.939 0 0 0 .469-.816 3.45 3.45 0 0 0-.562-1.434Z"/><path fill="#FFEDE3" d="M307.404 115.859a.998.998 0 0 0-1.35-.348c-.483.263-.952.575-1.421.866l-1.421.873a.993.993 0 0 0 .248 1.82c.255.067.526.03.754-.102l1.421-.881c.476-.291.967-.567 1.421-.88.217-.135.379-.344.455-.589.065-.257.027-.53-.107-.759ZM281.698 144.462c-.166-.485-.36-.959-.582-1.42-.185-.419-.377-.83-.576-1.242-.391-.83-.81-1.639-1.258-2.434a.994.994 0 0 0-1.357-.355 1.008 1.008 0 0 0-.355 1.355c.441.781.853 1.583 1.236 2.392.192.398.377.795.555 1.2.085.184.163.362.241.546 0 .043.085.206.093.227.064.164.135.327.213.483a.981.981 0 0 0 1.79-.752ZM170.374 101.877c-.817-.71-1.683-1.334-2.529-1.987a1.095 1.095 0 0 0-.711-.291.993.993 0 0 0-.994.986.976.976 0 0 0 .291.71c.917.71 1.812 1.419 2.757 2.129a.938.938 0 0 0 .746.1c.2-.062.376-.183.504-.348a.962.962 0 0 0-.064-1.299Z"/><path fill="#F8BE9D" d="M300.406 125.128v-.156a1.272 1.272 0 0 0-.057-.149l-.106-.27c-.078-.184-.149-.376-.228-.56a.705.705 0 0 0-.177-.341.71.71 0 0 0-.327-.234.747.747 0 0 0-.37-.114.804.804 0 0 0-.39 0 .993.993 0 0 0-.597.462l-.1.234a.956.956 0 0 0 0 .525l.228.575.113.284c.042.122.094.241.157.355l.085.127c.132.208.333.361.568.433h.256a.704.704 0 0 0 .363-.078.458.458 0 0 0 .213-.12.72.72 0 0 0 .241-.27l.1-.227a1.01 1.01 0 0 0 .028-.476ZM301.117 131.977a2.854 2.854 0 0 1-.114-.404v-.369a.988.988 0 0 0-.284-.71 1.04 1.04 0 0 0-.711-.291 1.03 1.03 0 0 0-.71.291 1.079 1.079 0 0 0-.292.71c-.006.259.013.518.057.773.028.179.073.355.135.525.081.247.186.484.313.71.085.141.182.274.291.398.083.087.176.163.277.227.08.045.163.083.249.113.173.043.353.043.526 0a.973.973 0 0 0 .661-.66c.177-.518-.185-.908-.398-1.313ZM300.477 139.33a.994.994 0 0 0-.669-1.293 1.008 1.008 0 0 0-1.082.388.983.983 0 0 0-.16.373 5.911 5.911 0 0 0-.263 1.419 4.038 4.038 0 0 0 0 .582v.291c.005.13.024.258.057.384.037.117.084.231.142.34l.149.199.192.149c.186.102.401.14.611.107a.87.87 0 0 0 .448-.185.845.845 0 0 0 .341-.497 1.902 1.902 0 0 0 .057-.561v-.347a3.628 3.628 0 0 1 .035-.561c.025-.266.073-.53.142-.788Z"/><path fill="#fff" d="M145.158 96.681a1.413 1.413 0 0 0-.426-.71 3.236 3.236 0 0 0-.277-.269 3.913 3.913 0 0 0-.824-.575 4.06 4.06 0 0 0-1.933-.461c-.264 0-.519.1-.71.284a.99.99 0 0 0-.215 1.086.999.999 0 0 0 .925.61h.334c.177.036.35.085.519.15.157.07.306.156.447.255.168.135.32.287.455.454l-.156-.199c.111.174.259.322.433.433a.999.999 0 0 0 1.08-.078.851.851 0 0 0 .299-.39c.072-.188.089-.392.049-.59Z"/><path fill="#000" d="M218.299 180.524c.168-.24.374-.451.611-.625.175-.119.337-.257.483-.411a1.063 1.063 0 0 0-.164-.405 231.95 231.95 0 0 0-15.723-20.093 222.201 222.201 0 0 0-8.825-9.489 107.002 107.002 0 0 0-8.853-8.34c-3.474-2.839-7.617-5.6-12.171-6.082a1.077 1.077 0 0 0-.384 0 9.009 9.009 0 0 0-.831-1.37 20.858 20.858 0 0 0-1.3-1.732 18.838 18.838 0 0 0-2.885-2.789 1.023 1.023 0 0 0-1.421 0 .997.997 0 0 0 0 1.419 18.75 18.75 0 0 1 2.785 2.676c.093.107.192.22.284.341.054.061.103.125.15.191l.042.057c.192.263.384.525.569.795.184.27.355.547.518.823.093.157.178.334.277.504-2.6 2.981-6.856 3.982-10.572 4.798-5.251 1.15-10.7 2.357-16.086 1.42-1.251-.213-1.791 1.696-.526 1.909 5.848.994 11.688-.234 17.394-1.498 4.263-.944 8.71-2.257 11.574-5.727.117.062.245.1.376.113 3.859.412 7.575 2.953 10.53 5.316a100.126 100.126 0 0 1 8.661 8.07 225.492 225.492 0 0 1 16.342 18.404 224.342 224.342 0 0 1 8.349 11.235.99.99 0 0 0 .796.49ZM72.508 239.532c-10.58-1.625-17.379-10.951-20.825-20.37a85.478 85.478 0 0 1-2.7-9.155c-.305-1.235-2.217-.71-1.918.532 2.622 10.682 6.885 21.952 16.796 27.907a22.33 22.33 0 0 0 8.122 2.988c1.25.199 1.783-1.71.525-1.902ZM217.247 245.175c-11.368-1.235-19.027-10.909-25.507-19.305-.767-.994-2.494 0-1.712 1 6.984 9.05 15.034 18.965 27.219 20.285 1.265.142 1.265-1.846 0-1.98ZM306.779 134.951a12.428 12.428 0 0 1-4.298 7.857c-2.615 2.229-6.061 2.889-9.237 4.031a19.9 19.9 0 0 0-7.574 4.777 29.884 29.884 0 0 0-5.066 7.289 56.533 56.533 0 0 0-1.833 3.939 1.133 1.133 0 0 0-.405-.092 17.868 17.868 0 0 1-13.827-6.842c-.71-.937-2.011.255-1.563 1.199 2.757 5.749 6.317 12.165 13.301 13.102h.114c.051.243.19.458.39.603 4.668 3.549 3.397 10.2 1.564 14.848-.938 2.392-2.132 4.479-4.534 5.678a13.929 13.929 0 0 1-6.991 1.037 1.104 1.104 0 0 0-.419.056 84.339 84.339 0 0 1-9.862-6.799 234.353 234.353 0 0 1-4.711-3.691c-.789-.631-1.57-1.277-2.352-1.916a15.485 15.485 0 0 0-2.43-1.938c-.71-.383-1.861.476-1.257 1.257.631.738 1.346 1.4 2.131 1.973.817.709 1.649 1.355 2.48 2.022a243.947 243.947 0 0 0 4.839 3.805 86.252 86.252 0 0 0 10.188 7.033h.064c-4.135 12.989-12.874 23.855-22.246 33.607-2.7 2.839-5.471 5.564-8.256 8.297-.91.901.497 2.299 1.421 1.419 9.947-9.759 19.994-19.873 26.587-32.307a63.936 63.936 0 0 0 4.541-10.86 15.032 15.032 0 0 0 7.51-1.419c2.735-1.42 4.121-3.939 5.215-6.714 2.181-5.55 2.934-12.676-2.181-16.828.217-.12.383-.314.469-.547 2.053-5.564 4.305-11.462 8.526-15.763a19.133 19.133 0 0 1 7.993-4.706c3.197-1.05 6.43-1.987 8.995-4.258a14.47 14.47 0 0 0 4.675-9.085c.178-1.327-1.811-1.313-1.961-.064ZM107.302 172.234a537.685 537.685 0 0 0-15.987 39.746 553.843 553.843 0 0 0-3.936 11.491c-.405 1.213 1.513 1.738 1.911.525a536.753 536.753 0 0 1 14.921-39.746 492.093 492.093 0 0 1 4.825-11.058c.49-1.107-1.215-2.115-1.734-.958ZM2.132 333.9H0l.043-83.715h169.102v2.13H2.175L2.131 333.9Z"/><path fill="#000" d="M96.957 250.462a57.725 57.725 0 0 1-4.036-8.332 42.65 42.65 0 0 1-2.131-8.993c-.157-1.249-2.132-1.27-1.983 0a45.178 45.178 0 0 0 2.196 9.518 36.594 36.594 0 0 0 4.263 8.787.976.976 0 1 0 1.691-.98ZM377.817 289.037h-99.721v-2.839h96.879v-73.977l-116.049-.44.007-2.839 118.884.447v79.648Z"/></g><defs><clipPath id="a"><path fill="#fff" d="M0 0h455v335H0z"/></clipPath></defs></svg>